<?xml version="1.0" encoding="UTF-8" standalone="no"?>
<svg
   width="1080"
   height="1080"
   viewBox="0 0 142.875 285.75"
   version="1.1"
   id="svg17956"
   sodipodi:docname="dendritic.svg"
   inkscape:version="1.3.2 (091e20e, 2023-11-25, custom)"
   xml:space="preserve"
   xmlns:inkscape="http://www.inkscape.org/namespaces/inkscape"
   xmlns:sodipodi="http://sodipodi.sourceforge.net/DTD/sodipodi-0.dtd"
   xmlns="http://www.w3.org/2000/svg"
   xmlns:svg="http://www.w3.org/2000/svg"
   xmlns:rdf="http://www.w3.org/1999/02/22-rdf-syntax-ns#"
   xmlns:cc="http://creativecommons.org/ns#"
   xmlns:dc="http://purl.org/dc/elements/1.1/"><sodipodi:namedview
     id="namedview17958"
     pagecolor="#ffffff"
     bordercolor="#111111"
     borderopacity="1"
     inkscape:showpageshadow="0"
     inkscape:pageopacity="0"
     inkscape:pagecheckerboard="1"
     inkscape:deskcolor="#d1d1d1"
     inkscape:document-units="pt"
     showgrid="false"
     inkscape:zoom="0.61859725"
     inkscape:cx="504.36694"
     inkscape:cy="1242.3269"
     inkscape:window-width="1800"
     inkscape:window-height="2774"
     inkscape:window-x="2869"
     inkscape:window-y="-11"
     inkscape:window-maximized="1"
     inkscape:current-layer="svg17956"
     showguides="false"><sodipodi:guide
       position="41.961736,72.753232"
       orientation="1,0"
       id="guide208207"
       inkscape:locked="false" /></sodipodi:namedview><metadata
     id="metadata132"><rdf:RDF><cc:Work><dc:type
           rdf:resource="http://purl.org/dc/dcmitype/StillImage" /><dc:date>2022-06-10T16:38:02.459701</dc:date><dc:format>image/svg+xml</dc:format><dc:creator><cc:Agent><dc:title>Matplotlib v3.4.1, https://matplotlib.org/</dc:title></cc:Agent></dc:creator></cc:Work></rdf:RDF></metadata><defs
     id="defs136"><style
       type="text/css"
       id="style134">*{stroke-linecap:butt;stroke-linejoin:round;}</style><clipPath
       id="paac16c4740"><rect
         height="282.95999"
         width="141.12"
         x="0"
         y="0"
         id="rect104570" /></clipPath><clipPath
       id="p25dba7968a"><rect
         height="282.95999"
         width="141.12"
         x="0"
         y="0"
         id="rect234812" /></clipPath></defs><defs
     id="defs17954"><clipPath
       id="pe59b597308"><rect
         height="226.08"
         width="529.91998"
         x="0"
         y="0"
         id="rect17951" /></clipPath></defs><g
     id="g1"
     transform="matrix(1.1092261,0,0,1.1043288,-3.286284,-9.5428848)"><path
       style="fill:#000000;fill-opacity:1;fill-rule:evenodd;stroke-width:0.713551;stroke-linecap:round;stroke-linejoin:round;stroke-opacity:0.929412;paint-order:stroke fill markers"
       id="path86749"
       sodipodi:type="arc"
       sodipodi:cx="67.365692"
       sodipodi:cy="137.93497"
       sodipodi:rx="127.21582"
       sodipodi:ry="127.69637"
       sodipodi:start="0"
       sodipodi:end="6.2326929"
       sodipodi:open="true"
       sodipodi:arc-type="arc"
       d="M 194.58151,137.93497 A 127.21582,127.69637 0 0 1 68.971508,265.62117 127.21582,127.69637 0 0 1 -59.809589,141.15847 127.21582,127.69637 0 0 1 62.549269,10.330147 127.21582,127.69637 0 0 1 194.41938,131.49001" /><g
       id="line2d_1"
       style="fill:#ffffff;fill-opacity:1;stroke:none;stroke-width:1.80637;stroke-linecap:round;stroke-linejoin:round;stroke-opacity:1"
       transform="matrix(1.6403281,0.16166944,-0.16166944,1.6403281,-33.463775,-8.982813)"><path
         style="color:#000000;fill:#ffffff;fill-opacity:1;stroke:none;stroke-opacity:1;-inkscape-stroke:none"
         d="m 76.976562,11.691406 c -0.236204,0.04127 0.218645,0.720412 0.08096,0.916726 0,0 -7.626831,15.305354 -8.703975,15.197708 -1.077144,-0.107646 -4.500033,-15.173027 -4.500033,-15.173027 -0.254313,-0.428398 -0.807486,-0.569969 -1.236329,-0.316407 -0.429101,0.253651 -0.257222,0.775992 -0.004,1.205345 4.688185,10.314385 5.098245,22.698644 3.568404,33.632551 -5.996964,-3.108826 -6.139816,-9.287194 -8.371094,-15.582031 -0.20316,-0.455924 -0.737624,-0.660612 -1.19336,-0.457032 -0.45517,0.203902 -0.658903,0.738155 -0.455078,1.19336 0,0 4.263602,8.864059 4.017712,10.004338 -0.24589,1.140279 -7.757813,-0.878906 -7.757813,-0.878906 -0.494955,-0.05554 -0.668147,-0.120268 -0.724742,0.374568 -0.0567,0.495673 0.299234,0.94343 0.794921,1 12.760428,-0.618643 13.912093,10.660101 15.410157,20.589843 l 0.722113,13.538497 c -3.259526,-3.000027 -3.424312,-8.367836 -4.323629,-13.079517 -0.09401,-0.489612 -0.566959,-0.810448 -1.05664,-0.716797 -0.490407,0.09308 -0.812317,0.566326 -0.71875,1.056641 0,0 3.778457,8.852443 2.704223,9.847621 -1.074234,0.995178 -7.704223,-2.29684 -7.704223,-2.29684 -0.493544,-0.07408 -0.953624,0.266166 -1.027344,0.759765 -0.07402,0.494204 0.267328,0.954587 0.761719,1.027344 5.882709,-0.204682 13.516449,3.90625 12.908203,15.273438 -1.423908,0.851678 -4.050782,-2.892578 -4.050782,-2.892578 -0.406122,-0.289629 -0.970141,-0.195189 -1.259765,0.210937 -0.290037,0.405614 -0.196488,0.969531 0.208984,1.259766 l 5.390625,3.845703 0.990235,12.531248 -0.322266,10.18164 c -5.429506,-0.60412 -6.672031,-2.18197 -11.039063,-5.32812 -0.623804,-6.61749 0.722507,-9.010594 3.001907,-15.078128 0.176103,-0.467065 -0.06006,-0.988418 -0.527297,-1.164062 -0.467629,-0.175901 -0.989227,0.06127 -1.164063,0.529297 0,0 -1.507645,7.938273 -2.248593,8.108563 -0.740947,0.1703 -3.001407,-6.270673 -3.001407,-6.270673 -0.262443,-0.424761 -0.819739,-0.555992 -1.24414,-0.292968 -0.42357,0.262373 -0.554661,0.818196 -0.292969,1.242187 3.953826,5.746874 3.667668,5.466804 3.671869,12.037114 0,0 -4.111538,-0.87704 -5.519531,-2.28516 -1.161134,-6.575919 -5.65222,-12.019155 -9.558583,-17.210975 0.804135,-11.733389 0.823766,-25.295191 4.540963,-35.353518 0.185045,-0.463294 -0.04058,-0.988872 -0.503907,-1.173828 -0.463294,-0.185046 -0.988871,0.04058 -1.173828,0.503906 0,0 -1.938482,14.168791 -2.806258,14.20528 -0.867776,0.03649 -3.678117,-11.621295 -3.678117,-11.621295 -0.185729,-0.462563 -0.711077,-0.687213 -1.173828,-0.501953 -0.462563,0.185729 -0.687213,0.711077 -0.501953,1.173828 2.192601,4.595385 6.75788,17.13466 3.992187,19.664062 -1.773409,0.959162 -4.912109,-3.529297 -4.912109,-3.529297 -0.404949,-0.292188 -0.970154,-0.20032 -1.261719,0.205078 -0.291779,0.405459 -0.199019,0.970765 0.207032,1.261719 l 6.023437,4.328125 -0.525391,10.15625 L 36.4394,87.210898 C 31.052423,81.821036 30.502182,78.431157 28.089794,71.365195 L 28.742627,61.18254 c 0.04469,-0.49671 -0.05848,-0.928764 -0.555177,-0.973595 -0.496711,-0.04469 -0.672456,0.328536 -0.717287,0.825234 0,0 1.20153,7.419488 -0.989744,8.055626 -2.191274,0.636138 -3.408203,-4.4375 -3.408203,-4.4375 l 0.65625,-11.189453 c 0.02954,-0.497769 -0.349902,-0.925299 -0.847657,-0.955079 -0.497769,-0.02954 -0.925298,0.349902 -0.955078,0.847657 0,0 1.620715,8.829224 -0.580078,9.855468 -2.200793,1.026244 -3.769531,-2.802734 -3.769531,-2.802734 -2.269339,-8.597854 -0.33834,-15.105564 2.003906,-23.326172 0.136128,-0.479436 -0.141823,-0.978525 -0.621094,-1.115234 -0.479436,-0.136128 -0.978525,0.141823 -1.115234,0.621094 0,0 -1.084929,12.256187 -2.282754,12.348001 -1.197825,0.09181 -4.018027,-6.29722 -4.018027,-6.29722 -0.317683,-0.384529 -0.886928,-0.438743 -1.271485,-0.121094 -0.3845282,0.317683 -0.4387416,0.886927 -0.121093,1.271484 5.895583,6.047145 4.942196,8.250826 5.61914,16.720704 -4.857332,6.387391 -4.552664,3.319444 -8.4199216,-0.945313 -0.3349979,-0.369306 -0.9058892,-0.397282 -1.2753907,-0.0625 -0.3693059,0.334998 -0.3972822,0.90589 -0.0625,1.275391 0,0 4.4634633,3.250254 4.5973033,4.47477 0.13384,1.224515 -4.3967663,5.749626 -4.3967663,5.749626 -0.327884,0.37683 -0.7674646,0.301977 -0.3899898,0.629119 0.3773527,0.3274 0.9488161,0.286268 1.2753906,-0.0918 l 4.8613275,-5.605468 4.78711,-3.892578 c 4.560382,2.733663 7.812876,7.255909 9.61914,9.865234 7.347719,16.611554 5.651113,9.129916 -1.388672,14.833984 l -6.68677,0.65612 c -0.498475,0.02671 -0.880754,0.452726 -0.853516,0.951172 0.02774,0.497697 0.453448,0.87882 0.951172,0.851562 0,0 5.36649,-2.10937 6.064935,-1.065666 0.698445,1.043703 -4.395175,7.708755 -4.395175,7.708755 -0.249903,0.431987 -0.374137,0.716818 0.05803,0.966417 0.432499,0.249577 0.581814,-0.0068 0.830742,-0.439636 l 5.212227,-8.234192 c 4.485559,-5.909538 7.764749,-1.540313 8.773438,0.08594 1.008689,1.626253 -3.296875,7.125 -3.296875,7.125 l -4.642579,1.839844 c -0.463029,0.184188 -0.689394,0.708587 -0.505859,1.171875 0.183414,0.463796 1.259858,-0.01764 1.72369,-0.200966 0,0 3.040736,-2.25633 3.755859,-1.488281 0.715123,0.768049 -0.02727,9.439484 -0.02727,9.439484 0.0058,0.49893 -0.0039,0.91986 0.494983,0.91382 0.498937,-0.006 0.461636,-0.37206 0.455593,-0.87099 l 0.317844,-9.906348 c 0,0 2.386624,-6.892818 3.339844,-7.214844 0.95322,-0.322026 5.265625,0.359375 5.265625,0.359375 0,0 5.634209,4.413807 4.847656,6.443359 -0.786553,2.029552 -4.910036,0.925665 -4.910036,0.925665 -0.327534,0.375511 -0.289078,0.94534 0.08594,1.273438 0.375788,0.328848 0.947119,0.290358 1.275391,-0.08594 l 4.433474,-0.37879 c 0,0 3.694486,5.445765 3.523437,8.511725 -1.484005,4.94398 -7.670048,12.86082 -9.134765,15.0664 -2.366323,2.74146 -10.996433,-2.76218 -13.394532,-3.8789 -0.451957,-0.2116 -0.989862,-0.0166 -1.201171,0.43554 -0.211334,0.45248 -0.01534,0.99059 0.4375,1.20117 0,0 7.194866,1.82238 7.577529,3.47832 0.316035,1.36762 -7.056,3.20141 -7.056,3.20141 -0.446916,0.22077 -0.630485,0.76186 -0.410156,1.20899 0.220792,0.44804 0.76332,0.6318 1.210937,0.41015 4.91401,-2.62312 6.79715,-4.00546 12.056641,-4.21679 -1.624592,7.9574 -3.690556,9.22112 -10.59375,12.34179 -0.454765,0.20539 -0.656799,0.74065 -0.451172,1.19531 0.206131,0.45401 0.741182,0.6551 1.195312,0.44922 0,0 4.991064,-4.95777 7.121255,-3.80106 1.12169,0.60909 -0.670083,7.92411 -0.670083,7.92411 -0.01264,0.49898 0.381869,0.9136 0.88086,0.92578 0.498225,0.0115 0.911644,-0.38265 0.923828,-0.88086 -0.318299,-13.39225 5.516273,-22.79454 12.896272,-32.90061 3.970298,-0.21559 8.637187,4.5484 11.729341,6.77393 l -1.279912,5.60324 -3.167969,1.13477 -2.68164,-5.35742 c -0.223661,-0.44623 -0.766873,-0.62642 -1.212891,-0.40235 -0.445093,0.22364 -0.6251,0.76541 -0.402344,1.21094 0,0 3.079288,2.03186 2.599856,5.26485 -5.05439,1.50817 -1.411513,6.21685 -9.802981,3.55937 -0.477868,-0.14359 -0.98163,0.12754 -1.125,0.60547 -0.143437,0.47845 0.128702,0.98247 0.607422,1.125 0,0 7.246777,-0.70584 6.12939,0.47965 -2.353159,2.49666 -7.422655,7.51983 -7.422655,7.51983 -0.414486,-0.61629 -0.667968,0.12326 -0.327824,0.4888 0.339617,0.36603 0.64028,0.18506 1.002614,0.50858 6.231606,-7.82004 8.847954,-7.62872 8.591127,-9.91508 -0.175148,-2.61452 4.548371,-3.35114 6.683607,-4.115 -1.838478,10.84237 -7.687156,15.71497 -13.873047,20.07031 -0.406867,0.28768 -0.503879,0.85052 -0.216797,1.25781 0.287678,0.40687 0.850523,0.50388 1.257813,0.2168 0,0 6.932499,-7.75153 8.060064,-7.22656 1.19762,0.55758 0.08447,12.04492 0.08447,12.04492 0.08671,0.49142 0.555504,0.8194 1.046875,0.73242 0.490517,-0.0867 0.818203,-0.55423 0.732422,-1.04492 -2.308945,-7.51374 1.61149,-18.44331 2.458148,-16.81228 l 3.078961,5.93142 c 0.253651,0.4291 0.806975,0.57158 1.236328,0.31836 0.429806,-0.25299 0.573204,-0.80647 0.320313,-1.23633 -6.573114,-6.61766 -3.731599,-8.58539 -2.03125,-15.4375 l 0.0039,-0.0137 v -0.002 l 1.874912,-5.76844 4.103858,1.14807 c 0,0 3.863102,0.80678 4.002296,5.76766 0.139195,4.96088 2.234303,19.78986 1.427563,37.30386 3.04585,-0.17738 4.278331,-0.35654 7.144424,-0.99745 -0.02714,-0.2478 -3.444895,-23.49135 -3.444895,-23.49135 l 5.651607,-4.30799 c 0.39888,-0.29893 0.480174,-0.86449 0.18164,-1.26367 -0.299054,-0.40012 -0.86611,-0.48151 -1.265625,-0.18164 0,0 -4.984953,5.20401 -5.286415,3.17078 -0.879122,-5.9293 -1.227442,-5.98642 -1.207088,-8.98238 0.02035,-2.99596 4.697979,-10.00371 4.697979,-10.00371 l 1.301384,1.45789 -0.755645,6.43819 c -0.07671,0.49232 0.259757,0.95376 0.751953,1.03125 0.493013,0.0779 0.396136,-0.29157 0.473596,-0.78465 0,0 -0.4326,-4.35604 1.061346,-4.78831 2.092632,1.53492 4.777978,5.43936 6.503953,7.39659 l 1.013672,8.39453 c 0.06043,0.4951 0.510753,0.84749 1.005859,0.78711 0.494244,-0.0605 0.846325,-0.50952 0.78711,-1.00391 0,0 -2.93746,-6.83063 -1.285823,-8.1825 0.78511,-0.64261 4.416682,2.76453 4.416682,2.76453 0.458441,0.1962 0.989146,-0.0162 1.185547,-0.47461 0.195967,-0.45898 -0.01745,-0.98989 -0.476563,-1.18554 l -5.238281,-2.23633 c 0,0 -3.080743,-2.5683 -3.833984,-4.34766 -0.60804,-1.43636 2.712499,-3.50826 2.712499,-3.50826 0.343748,-0.36182 0.676928,-0.64826 0.314848,-0.99174 -0.361824,-0.34375 -0.446996,0.10298 -0.790474,0.46506 l -3.434136,2.67166 c -2.016916,-1.82252 -3.17828,-3.99756 -4.394531,-6.36328 0,0 5.000032,-8.39883 6.704971,-9.39948 1.704939,-1.00064 2.288747,1.78422 7.304795,5.01663 l 1.955078,7.14257 c 0.131637,0.48106 0.62829,0.76436 1.10937,0.63282 0.48107,-0.13164 0.12492,-0.50417 -0.007,-0.98526 0,0 -2.280745,-4.3417 -0.842975,-5.54013 5.851715,1.30428 12.370735,5.32035 15.182865,7.09254 2.81213,1.7722 0.71913,0.54176 0.98539,0.11972 0.26627,-0.42203 -0.10526,-0.62851 -0.49679,-0.87478 -0.39152,-0.24627 -4.24867,-2.00193 -4.34707,-2.74351 -0.0984,-0.74157 5.4373,-5.31468 5.4373,-5.31468 0.33833,-0.36581 0.3165,-0.93651 -0.0488,-1.27539 -0.3658,-0.33834 -0.67546,0.22807 -1.01435,0.59337 0,0 -4.37095,6.05395 -5.63066,5.55428 -1.25971,-0.49967 -2.80043,-1.24793 -4.18191,-1.96991 -1.38149,-0.72198 2.70631,-4.68425 2.70631,-4.68425 0.29896,-0.39867 0.71221,-0.66469 0.31396,-0.96422 -0.399,-0.30029 -0.65035,0.0392 -0.95001,0.43867 l -3.59881,4.11797 -5.17969,-2.49219 c 0,0 -4.865611,-3.67352 -4.962099,-5.65091 -0.04699,-0.963048 3.195946,-4.826328 5.454804,-5.121655 1.012155,-0.132331 1.888155,2.524523 1.888155,2.524523 0.37608,0.327117 0.94667,0.286531 1.27344,-0.08984 0.32678,-0.376369 0.28628,-0.94633 -0.0898,-1.273437 0,0 -2.67751,-1.663528 -2.29492,-1.996094 0.38259,-0.332566 3.99059,-4.338189 4.92969,-4.285156 0.93909,0.05303 3.55143,3.248084 3.55143,3.248084 0.33696,0.367252 0.57141,0.647308 0.9388,0.310512 0.36831,-0.337406 -0.20854,-0.516446 -0.54665,-0.884102 0,0 -3.05688,-2.57189 -3.02769,-3.634261 0.0292,-1.062371 3.48078,-4.780621 5.5658,-4.54078 2.08502,0.239841 5.18121,1.478269 5.33854,1.671429 0.15732,0.193161 0.73557,0.888715 1.12246,0.574675 0.38689,-0.31404 0.13787,-0.679285 -0.0189,-0.872958 -0.15678,-0.193673 -1.43809,-0.524526 -5.32416,-2.038612 -1.94303,-0.757043 -1.93651,-3.11927 2.88444,-5.651307 4.82096,-2.532037 14.45636,-5.233883 18.34959,-1.650864 0.48807,0.101744 0.96627,-0.211226 1.06836,-0.699219 0.10175,-0.488067 -0.21122,-0.966263 -0.69922,-1.068359 0,0 -5.71682,-0.428496 -5.84317,-1.792198 -0.12634,-1.363702 6.59028,-5.76557 6.59028,-5.76557 0.13446,-0.480571 -0.14629,-0.979112 -0.62695,-1.113281 -0.48057,-0.134457 -0.97911,0.146301 -1.11328,0.626953 -1.87589,2.511464 -7.07029,7.339503 -8.80112,6.45872 -0.89805,-0.815555 0.26645,-11.574493 0.26645,-11.574493 0.0592,-0.495068 0.0466,-0.859341 -0.44843,-0.918819 -0.49507,-0.05917 -0.66007,0.289736 -0.71955,0.784768 -0.0553,12.211785 1.04209,11.716226 -7.83768,15.344722 -1.20308,-0.798137 3.05918,-9.438084 3.05918,-9.438084 0.0459,-0.49674 -0.31965,-0.936603 -0.8164,-0.982422 -0.49743,-0.04584 -0.93761,0.320827 -0.98242,0.818359 0.72503,11.456105 -25.260688,32.508663 -26.479662,31.781675 -1.218974,-0.726988 0.102645,-9.797307 0.102645,-9.797307 6.68e-4,-6.66e-4 0.0013,-0.0013 0.002,-0.002 L 93.03721,75.837844 c 10.78616,-16.640525 14.14772,-17.619558 24.11147,-21.502604 0.42113,-0.267042 0.54615,-0.824847 0.2793,-1.246093 -0.26704,-0.421131 -0.71944,0.147483 -1.14068,0.414343 0,0 -7.36725,4.355007 -8.39029,2.814562 -1.02304,-1.540445 4.1402,-10.220439 4.1402,-10.220439 0.13613,-0.479435 -0.14182,-0.978523 -0.62109,-1.115234 -0.47886,-0.136274 -0.97768,0.140655 -1.11524,0.61914 -1.26399,5.83547 -5.12093,15.036142 -6.61508,14.25283 -1.49415,-0.783312 1.248,-16.137457 8.7924,-21.317908 0.19375,-0.460595 -0.0233,-0.990982 -0.48438,-1.183593 -0.46006,-0.192447 -0.98903,0.02439 -1.18164,0.484375 0,0 -5.46298,9.13382 -6.21545,9.049953 -0.75246,-0.08387 -0.76445,-12.603814 -0.76445,-12.603814 -0.32496,-0.430135 0.40483,-1.64535 -0.0941,-1.644733 -0.49816,4.65e-4 -0.44288,0.579794 -0.44334,1.077951 0,0 -0.0822,10.950778 0.0564,14.268668 0.13867,3.317891 -1.02133,4.952209 -1.02133,4.952209 -0.0336,-0.03681 -0.0702,-0.07079 -0.10938,-0.101563 -0.42389,-0.263377 -0.7646,0.01392 -1.02769,0.437985 0,0 -2.143931,6.347577 -2.943237,5.814402 -0.799307,-0.533175 -0.08407,-11.018583 -0.08407,-11.018583 -0.0026,-0.498925 -0.172638,-0.89088 -0.671562,-0.8881 -0.498925,0.0026 -0.518088,0.53982 -0.515308,1.038744 l 0.299886,12.00243 c 0.197828,5.701834 -2.015259,10.097444 -4.573644,13.197148 l -1.949219,-9.923828 c 0.08343,-8.262769 1.015096,-13.142178 3.792224,-20.543574 0.174609,-0.467064 0.278269,-0.791346 -0.188708,-0.966192 -0.466514,-0.174808 -0.496204,0.01282 -0.671839,0.479023 0,0 -1.722636,7.154915 -1.747591,5.338884 -1.404541,-9.455246 1.65502,-13.765546 6.669541,-21.304233 0.276043,-0.415312 0.163255,-0.975754 -0.251953,-1.251953 -0.414804,-0.276423 -0.975125,-0.164534 -1.251953,0.25 0,0 -4.733722,10.96493 -5.801554,10.687716 C 90.236084,35.90855 88.53125,23.914062 88.53125,23.914062 c -0.13671,-0.47927 -0.635798,-0.757221 -1.115234,-0.621093 -0.480258,0.136683 -0.758478,0.637129 -0.621094,1.117187 4.773358,12.114607 3.534929,24.209902 2.486332,35.478516 -3.043616,-5.703984 -2.459852,-11.584671 -2.880859,-17.966797 -0.03282,-0.497851 -0.463098,-0.874782 -0.960938,-0.841797 -0.497851,0.03282 -0.874782,0.463098 -0.841797,0.960938 0,0 2.414859,12.958174 1.774009,13.264136 -0.64085,0.305962 -6.879478,-9.146949 -6.879478,-9.146949 -0.329963,-0.374533 -0.901171,-0.410399 -1.27539,-0.08008 -0.373255,0.329785 -0.409081,0.89949 -0.08008,1.273437 0,0 9.662817,9.288797 11.880829,19.385729 2.218011,10.096932 1.370813,34.831691 -4.429662,8.516615 -0.106516,-0.487754 -0.58855,-0.79657 -1.076172,-0.689453 -0.487899,0.107389 -0.795944,0.590459 -0.6875,1.078125 0,0 4.378331,8.30708 2.898217,9.557755 -1.480114,1.250675 -6.304467,-2.41713 -6.304467,-2.41713 -0.475724,-0.151317 -0.983982,0.111997 -1.134766,0.587891 -0.150047,0.475122 0.113009,0.982007 0.587891,1.132812 10.425877,2.29427 10.117327,5.586473 7.578282,15.892556 -4.140576,7.92095 -5.980101,9.52055 -10.942096,16.80743 l -3.599125,-2.51633 0.337891,-10.66211 3.732422,-5.576173 c 0.278139,-0.414677 0.167027,-0.97636 -0.248047,-1.253907 -0.414297,-0.276805 -0.974497,-0.165813 -1.251953,0.248047 0,0 -2.037073,5.035553 -2.431641,3.632813 -1.90513,-13.593757 -2.551849,-23.877305 -3.318308,-37.406308 l 6.562092,-6.765492 c 0.360411,-0.345121 0.587905,-0.637954 0.242591,-0.99818 -0.345121,-0.360411 -0.661016,-0.05997 -1.021242,0.285345 0,0 -5.073137,6.554688 -6.068602,5.247862 -0.995465,-1.306826 -1.757812,-11.986328 -1.757812,-11.986328 0.07499,-9.758981 2.137455,-12.945238 9.009117,-18.923619 0.376884,-0.327708 0.627845,-0.657104 0.299476,-1.033412 -0.327536,-0.375608 -0.715677,-0.09492 -1.091708,0.232125 0,0 -6.078189,7.233304 -7.011657,6.105281 -0.923942,-7.805474 7.523288,-18.499464 8.980318,-22.73389 0.28628,-0.408305 0.187483,-0.971362 -0.220703,-1.257812 -0.19583,-0.137387 -0.438166,-0.191474 -0.673829,-0.150391 z m 25.383308,42.693619 c -0.19588,6.249191 -2.865059,10.630642 -4.064948,11.700912 -0.223621,-5.859232 3.156838,-12.091202 4.064948,-11.700912 z"
         id="path86757"
         sodipodi:nodetypes="sczccccccczcscccccczcccccccccccccczccccccccczcccccccccccccczcccczcccczccccccczcccccccccczcccczcccczcccczczcccccccccscscccccsccccccccscccccsccccccccscccscccccccczccccccszccccccccccsccccsccccczccccczzzzccczzcccccssssszzscczzzzzssccczccccccccccczcccccczccczccczccczccczccccccccccccczccccccczccczccczccccccccccccccczcccccccssccc" /></g></g></svg>
