<?xml version="1.0" encoding="UTF-8" standalone="no"?>
<svg
   width="1080"
   height="1080"
   viewBox="0 0 142.875 285.75"
   version="1.1"
   id="svg5"
   inkscape:version="1.3.2 (091e20e, 2023-11-25, custom)"
   sodipodi:docname="sapling.svg"
   xmlns:inkscape="http://www.inkscape.org/namespaces/inkscape"
   xmlns:sodipodi="http://sodipodi.sourceforge.net/DTD/sodipodi-0.dtd"
   xmlns="http://www.w3.org/2000/svg"
   xmlns:svg="http://www.w3.org/2000/svg">
  <sodipodi:namedview
     id="namedview7"
     pagecolor="#ffffff"
     bordercolor="#666666"
     borderopacity="1.0"
     inkscape:pageshadow="2"
     inkscape:pageopacity="0.0"
     inkscape:pagecheckerboard="0"
     inkscape:document-units="mm"
     showgrid="false"
     units="px"
     inkscape:snap-global="false"
     inkscape:zoom="0.44398186"
     inkscape:cx="858.14317"
     inkscape:cy="908.82091"
     inkscape:window-width="1800"
     inkscape:window-height="2774"
     inkscape:window-x="2869"
     inkscape:window-y="-11"
     inkscape:window-maximized="1"
     inkscape:current-layer="layer1"
     inkscape:showpageshadow="0"
     inkscape:deskcolor="#d1d1d1" />
  <defs
     id="defs2" />
  <g
     inkscape:label="Layer 1"
     inkscape:groupmode="layer"
     id="layer1">
    <g
       id="g1"
       transform="matrix(1.1526146,0,0,1.1416855,-74.447707,-16.186271)">
      <circle
         style="fill:#000000;fill-opacity:1;stroke:none;stroke-width:1.22202;stroke-linecap:round;stroke-linejoin:round"
         id="path846"
         cx="126.56894"
         cy="138.14948"
         r="122.42697" />
      <path
         id="path18079"
         style="fill:#ffffff;stroke-width:0.681444"
         d="M 75.593004,75.085208 C 84.975483,91.761566 106.29238,119.78675 116.43578,135.64982 109.16054,130.59183 83.149338,97.361581 77.280229,88.835909 79.046757,99.985187 110.41485,133.84633 114.685,138.19606 101.76424,130.27871 78.817818,105.04212 64.726607,94.166628 c 8.889596,10.941142 18.029404,19.769712 29.29078,30.916202 5.062898,4.90956 11.724973,8.41266 16.896373,13.24097 2.08409,2.23189 5.95701,3.89805 7.42248,6.53256 0,0 2.7196,30.86419 2.8215,60.46387 0.10191,29.59968 -3.47271,53.46816 -6.0365,57.00416 0,0 4.4937,1.08965 14.85664,0.32222 -4.2803,-16.1481 -4.11398,-63.15403 -4.11398,-63.15403 -0.47321,-13.75026 -1.21175,-27.87103 -1.10676,-41.24375 -0.1144,-5.162 0.25593,-6.55624 1.4044,-10.92346 0.82063,-4.48399 21.23923,-16.82697 31.51266,-24.70919 10.71829,-9.03882 21.94775,-13.42747 33.36561,-21.52014 -17.62984,4.26645 -44.75313,25.46528 -59.01822,37.08815 9.27887,-7.95394 34.06448,-35.997 50.11881,-55.121607 -17.71381,16.659525 -47.00076,46.954647 -53.16883,55.827967 4.92037,-8.41159 14.79867,-38.44835 14.83787,-47.226806 -6.94512,17.677186 -10.10493,31.270776 -19.7961,49.685726 3.24401,-8.51476 4.78735,-13.77007 4.83287,-22.92573 0.0456,-9.15569 0.48951,-31.364739 -3.35065,-41.302008 0.26377,17.35802 2.14658,40.223638 -2.49217,58.575028 -2.98796,-8.41689 -14.37832,-47.798694 -16.36824,-57.310814 -0.69396,11.249906 8.35249,38.954104 12.53344,57.020894 C 114.0614,124.7337 88.299612,92.417381 75.592995,75.085208 Z"
         sodipodi:nodetypes="sccccccczcccccccccccccccccss" />
    </g>
  </g>
</svg>
